<?xml version="1.0" encoding="iso-8859-1"?>
<!-- Generator: Adobe Illustrator 16.0.0, SVG Export Plug-In . SVG Version: 6.00 Build 0)  -->
<!DOCTYPE svg PUBLIC "-//W3C//DTD SVG 1.1//EN" "http://www.w3.org/Graphics/SVG/1.1/DTD/svg11.dtd">
<svg version="1.1" id="Capa_1" xmlns="http://www.w3.org/2000/svg" xmlns:xlink="http://www.w3.org/1999/xlink" x="0px" y="0px"
	 width="874.199px" height="874.199px" viewBox="0 0 874.199 874.199" style="enable-background:new 0 0 874.199 874.199;"
	 xml:space="preserve">
<g>
	<path d="M125,0c-13.8,0-25,11.2-25,25v824.199c0,13.801,11.2,25,25,25h624.199c13.801,0,25-11.199,25-25V25c0-13.8-11.199-25-25-25
		H125z M315.4,770.9c0,13.799-11.2,25-25,25h-77.7c-13.8,0-25-11.201-25-25v-77.701c0-13.799,11.2-25,25-25h77.7
		c13.8,0,25,11.201,25,25V770.9z M315.4,591.5c0,13.801-11.2,25-25,25h-77.7c-13.8,0-25-11.199-25-25v-77.699
		c0-13.801,11.2-25,25-25h77.7c13.8,0,25,11.199,25,25V591.5z M315.4,412.1c0,13.8-11.2,25-25,25h-77.7c-13.8,0-25-11.2-25-25v-77.7
		c0-13.8,11.2-25,25-25h77.7c13.8,0,25,11.2,25,25V412.1z M501,770.9c0,13.799-11.199,25-25,25h-77.7c-13.801,0-25-11.201-25-25
		v-77.701c0-13.799,11.199-25,25-25H476c13.801,0,25,11.201,25,25V770.9z M501,591.5c0,13.801-11.199,25-25,25h-77.7
		c-13.801,0-25-11.199-25-25v-77.699c0-13.801,11.199-25,25-25H476c13.801,0,25,11.199,25,25V591.5z M501,412.1
		c0,13.8-11.199,25-25,25h-77.7c-13.801,0-25-11.2-25-25v-77.7c0-13.8,11.199-25,25-25H476c13.801,0,25,11.2,25,25V412.1z
		 M686.6,770.9c0,13.799-11.199,25-25,25H583.9c-13.801,0-25-11.201-25-25v-257c0-13.801,11.199-25,25-25H661.6
		c13.801,0,25,11.199,25,25V770.9z M686.6,412.1c0,13.8-11.199,25-25,25H583.9c-13.801,0-25-11.2-25-25v-77.7
		c0-13.8,11.199-25,25-25H661.6c13.801,0,25,11.2,25,25V412.1z M686.6,196.3c0,13.8-11.199,25-25,25H212.7c-13.8,0-25-11.2-25-25
		v-83.8c0-13.8,11.2-25,25-25h448.8c13.801,0,25,11.2,25,25v83.8H686.6z"/>
</g>
<g>
</g>
<g>
</g>
<g>
</g>
<g>
</g>
<g>
</g>
<g>
</g>
<g>
</g>
<g>
</g>
<g>
</g>
<g>
</g>
<g>
</g>
<g>
</g>
<g>
</g>
<g>
</g>
<g>
</g>
</svg>
